<svg width="191" height="47" viewBox="0 0 191 47" fill="none" xmlns="http://www.w3.org/2000/svg">
<path d="M35.7263 39.9012H27.1624V37.92C25.8416 38.7722 24.4569 39.4965 22.9231 39.9651C21.3893 40.4125 19.7702 40.6894 18.0447 40.6894C16.3191 40.6894 13.8053 40.2847 11.9093 39.4326C10.0133 38.5804 8.28779 37.4514 6.81787 36.0666C5.36925 34.618 4.24018 32.9564 3.45196 31.0604C2.59983 29.1644 2.19507 27.098 2.19507 24.8399C2.19507 22.5817 2.59983 20.5579 3.45196 18.6193C4.30409 16.7233 5.43316 15.0617 6.81787 13.6131C8.20257 12.1644 9.92814 11.0354 11.9093 10.2471C13.8053 9.39502 15.9356 8.99026 18.0447 8.99026C20.1537 8.99026 21.3467 9.2672 22.9231 9.71457C24.4569 10.1619 25.8203 10.8862 27.1624 11.7597V9.77848H35.7263V39.9438V39.9012ZM18.9607 32.9138C20.0898 32.9138 21.1336 32.722 22.1136 32.2534C23.1148 31.806 23.967 31.2095 24.6913 30.4639C25.4156 29.7396 26.0121 28.8875 26.4807 27.8862C26.9281 26.885 27.1411 25.8411 27.1411 24.7333C27.1411 23.6256 26.9494 22.5604 26.4807 21.5805C26.0334 20.5792 25.4369 19.7271 24.6913 19.0028C23.967 18.2785 23.1148 17.682 22.1136 17.2133C21.1123 16.7659 20.0685 16.5529 18.9607 16.5529C17.8529 16.5529 16.7878 16.7446 15.8078 17.2133C14.8066 17.6607 13.9544 18.2572 13.2301 19.0028C12.5058 19.7271 11.9093 20.5792 11.5259 21.5805C11.1424 22.5817 10.9294 23.6256 10.9294 24.7333C10.9294 25.8411 11.1211 26.9063 11.5259 27.8862C11.9306 28.8875 12.5271 29.7396 13.2301 30.4639C13.9331 31.1882 14.8066 31.7847 15.8078 32.2534C16.8091 32.7007 17.8529 32.9138 18.9607 32.9138ZM52.5133 17.405V28.504C52.5133 29.5053 52.8328 30.3574 53.5571 31.0817C54.2814 31.7421 55.1336 32.1255 56.1348 32.1255H57.9243V39.9225H54.7714C53.2376 39.9225 51.789 39.6456 50.4895 39.0704C49.19 38.4952 48.0609 37.6857 47.0596 36.6844C46.0584 35.6832 45.2702 34.5115 44.6737 33.2546C44.0772 31.9338 43.8215 30.5491 43.8215 28.9727V17.4689H38.4531V9.67196H43.8215V2.08802H52.4707V9.67196H57.9456V17.4689H52.4707L52.5346 17.405H52.5133ZM139.601 32.1255C138.6 32.1255 137.705 31.806 137.023 31.0817C136.299 30.4213 135.979 29.5479 135.979 28.504V2.04541H127.33V29.42C127.33 30.7408 127.65 31.9977 128.182 33.1694C128.779 34.4902 129.567 35.598 130.568 36.5992C131.569 37.6005 132.741 38.3887 133.998 38.9852C135.319 39.5817 136.704 39.8373 138.28 39.8373H141.433V32.1255H139.579H139.601ZM152.894 32.1255V2.04541H144.245V39.8586H158.369V32.1469H152.894V32.1255ZM123.9 23.5617C123.368 15.6369 116.955 9.11808 109.201 8.99026C98.4217 8.79853 87.6849 8.92635 76.9054 8.99026C75.7338 8.99026 74.4769 9.11808 73.3478 9.43763C65.8278 11.291 60.8002 18.6832 61.8015 26.395C62.611 32.3386 67.6598 39.8373 76.9907 39.8373H92.6911C92.6911 39.8373 99.7638 39.9012 103.258 39.8373C105.835 39.8373 108.392 39.8373 110.927 39.5604C118.724 38.5165 124.412 31.2521 123.922 23.5191V23.5617H123.9ZM111.374 30.6769C110.373 31.0817 109.265 31.3373 108.221 31.3373H77.2676C73.0283 31.3373 70.0032 28.3549 70.0032 24.3499C70.0032 20.3449 73.1135 17.405 77.3102 17.405H108.519C111.821 17.405 114.655 19.791 115.251 22.88C115.912 26.118 114.335 29.3348 111.374 30.6769ZM160.947 17.7459C160.947 16.212 161.351 14.9126 162.076 13.7835C162.885 12.6544 163.78 11.7384 165.058 10.9502C166.23 10.2258 167.636 9.62935 169.148 9.2885C170.682 8.88374 172.259 8.75592 173.835 8.75592C175.411 8.75592 176.945 8.88374 178.33 9.20329C179.779 9.52284 181.099 10.0128 182.292 10.7371C183.464 11.3975 184.551 12.271 185.403 13.2509C186.255 14.2522 186.937 15.509 187.299 16.8724L179.992 19.301C179.587 18.4915 178.99 17.8524 178.096 17.2559C177.18 16.6594 175.987 16.3399 174.453 16.2547C173.196 16.2547 172.195 16.2547 171.428 16.5316C170.618 16.8085 170.171 17.192 170.107 17.7885C170.043 18.4489 170.384 18.9602 171.151 19.3649C171.96 19.7697 173.004 20.1744 174.261 20.494C175.518 20.8988 176.924 21.3035 178.5 21.7509C180.034 22.1983 181.483 22.7947 182.782 23.6043C184.103 24.4138 185.211 25.3937 186.084 26.7145C186.937 27.9714 187.405 29.6118 187.405 31.5291C187.405 33.4463 187 34.2985 186.276 35.4062C185.467 36.5353 184.487 37.5153 183.294 38.2396C182.037 39.0491 180.588 39.6243 179.054 40.029C177.521 40.4338 175.944 40.5616 174.368 40.5616C172.791 40.5616 171.343 40.3699 169.809 39.9651C168.275 39.5604 167.039 38.9639 165.782 38.2609C164.526 37.6005 163.524 36.727 162.672 35.7471C161.82 34.7458 161.011 33.6381 160.627 32.0403L168.296 29.6118C168.957 30.8687 169.425 31.316 170.341 31.9977C171.257 32.6581 172.386 33.0416 173.579 33.1694C174.581 33.2333 175.561 33.1694 176.562 32.9777C177.563 32.7859 178.138 32.3173 178.351 31.7208C178.543 30.9965 178.224 30.4 177.499 30.0165C176.775 29.6331 175.731 29.207 174.389 28.8875C173.068 28.4827 171.683 28.0779 170.107 27.6306C168.573 27.1832 167.125 26.5867 165.74 25.7772C164.419 24.9677 163.311 23.9238 162.374 22.6669C161.458 21.3461 160.947 19.7697 160.947 17.7033V17.7459Z" fill="#A9A9A9"/>
</svg>
