<svg width="112" height="34" viewBox="0 0 112 34" fill="none" xmlns="http://www.w3.org/2000/svg">
<g clip-path="url(#clip0_575_217)">
<path d="M0 33.7233H10.8007V0.383789H0V33.7233Z" fill="#A9A9A9"/>
<path d="M25.3957 20.6218V33.7233H14.6376V0.383789H42.6087V9.62939H25.3957V12.7184H42.6087V20.6005H25.3957" fill="#A9A9A9"/>
<path d="M56.6821 24.3286V9.62939H75.6845V0.383789H53.7635C49.3325 0.383789 45.8813 4.00534 45.8813 8.26598V25.7985C45.8813 30.3574 49.6094 33.7233 53.8488 33.7233H75.6845V24.3286H56.6821Z" fill="#A9A9A9"/>
<path d="M94.3106 24.4561C90.1777 24.4561 86.8544 21.1115 86.8544 16.9787C86.8544 12.8458 90.1991 9.52254 94.3106 9.52254C98.4221 9.52254 101.767 12.8671 101.767 16.9787C101.767 21.0902 98.4221 24.4561 94.3106 24.4561ZM93.6715 0C84.2981 0 77.3319 7.60525 77.3319 16.9787C77.3319 26.3521 84.9372 33.9573 94.3106 33.9573C103.684 33.9573 111.289 26.3521 111.289 16.9787C111.289 7.60525 103.045 0 93.6715 0Z" fill="#A9A9A9"/>
</g>
<defs>
<clipPath id="clip0_575_217">
<rect width="111.288" height="33.6591" fill="white"/>
</clipPath>
</defs>
</svg>
