<svg width="207" height="37" viewBox="0 0 207 37" fill="none" xmlns="http://www.w3.org/2000/svg">
<path d="M0 0.0107422H13.6909C15.8945 0.0107422 17.4836 0.505288 18.4545 1.49438C19.4255 2.48347 19.9091 3.87256 19.9091 5.65802V13.418C19.9091 14.5598 19.72 15.5017 19.3382 16.2435C18.9564 16.9853 18.3491 17.5089 17.5127 17.8107C18.3491 18.1162 18.9564 18.5998 19.3382 19.2653C19.7164 19.9307 19.9091 20.8144 19.9091 21.9198V30.3635C19.9091 32.1526 19.4255 33.538 18.4545 34.5271C17.4836 35.5162 15.8945 36.0107 13.6909 36.0107H0V0.0107422ZM13.4073 13.8762V6.34529C13.4073 5.73802 13.2945 5.32711 13.0655 5.11983C12.8364 4.91256 12.4 4.80711 11.7527 4.80711H6.56V15.418H11.7527C12.4 15.418 12.8364 15.3053 13.0655 15.0762C13.2945 14.8471 13.4073 14.4471 13.4073 13.8798V13.8762ZM13.4073 29.6762V21.7453C13.4073 21.138 13.2945 20.7271 13.0655 20.5198C12.8364 20.3126 12.4 20.2071 11.7527 20.2071H6.56V31.218H11.7527C12.4 31.218 12.8364 31.1126 13.0655 30.9053C13.2945 30.698 13.4073 30.2871 13.4073 29.6798V29.6762Z" fill="#024930"/>
<path d="M41.1636 30.9923V36.0105H23.5927V0.0141602H40.7054V5.03234H30.2073V15.0178H39.0509V20.0942H30.2073V30.9923H41.1636Z" fill="#024930"/>
<path d="M60.9782 30.9926V36.0107H44.8327V0.0107422H51.3927V30.9926H60.9782Z" fill="#024930"/>
<path d="M80.8182 30.9926V36.0107H64.6727V0.0107422H71.2327V30.9926H80.8182Z" fill="#024930"/>
<path d="M100.585 0.0141602H91.7418L84.4982 36.0142H91.0582L92.3382 28.5414H100.189L101.556 36.0142H108.175L100.585 0.0141602ZM93.1891 23.5742L96.1382 6.34507L99.2873 23.5742H93.1927H93.1891Z" fill="#024930"/>
<path d="M112.364 0.0546875H126.044C128.247 0.0546875 129.833 0.549233 130.804 1.53832C131.771 2.52741 132.258 3.91287 132.258 5.69832V13.4511C132.258 14.5929 132.069 15.5311 131.687 16.2729C131.305 17.0147 130.698 17.5383 129.862 17.8401C130.698 18.1456 131.305 18.6292 131.687 19.2947C132.065 19.9601 132.258 20.8438 132.258 21.9456V30.382C132.258 32.1674 131.775 33.5565 130.804 34.542C129.836 35.5311 128.247 36.0256 126.044 36.0256H112.364V0.0546875ZM125.745 13.8511V6.35651C125.745 5.75287 125.633 5.3456 125.404 5.13469C125.178 4.92741 124.742 4.82196 124.098 4.82196H118.931V15.382H124.098C124.742 15.382 125.178 15.2692 125.404 15.0401C125.629 14.8111 125.745 14.4147 125.745 13.8474V13.8511ZM125.745 29.5747V21.6838C125.745 21.0801 125.633 20.6729 125.404 20.462C125.178 20.2547 124.742 20.1492 124.098 20.1492H118.931V31.1056H124.098C124.742 31.1056 125.178 31.0001 125.404 30.7929C125.629 30.5856 125.745 30.1783 125.745 29.5711V29.5747Z" fill="#024930"/>
<path d="M153.887 1.48364C152.916 0.494545 151.327 0 149.12 0H142.156C139.989 0 138.411 0.494545 137.422 1.48364C136.429 2.47273 135.938 3.86182 135.938 5.65091V30.3709C135.938 32.16 136.429 33.5491 137.422 34.5382C138.411 35.5273 139.989 36.0218 142.156 36.0218H149.12C151.327 36.0218 152.916 35.5273 153.887 34.5382C154.858 33.5491 155.342 32.16 155.342 30.3709V5.65091C155.342 3.86182 154.858 2.47273 153.887 1.48364ZM148.778 29.4582C148.778 30.0291 148.673 30.4291 148.465 30.6582C148.255 30.8836 147.825 31 147.182 31H144.156C143.509 31 143.073 30.8836 142.844 30.6582C142.615 30.4291 142.502 30.0291 142.502 29.4582V6.56727C142.502 5.96 142.615 5.54909 142.844 5.33818C143.073 5.13091 143.509 5.02545 144.156 5.02545H147.182C147.825 5.02545 148.255 5.13091 148.465 5.33818C148.673 5.54909 148.778 5.96 148.778 6.56727V29.4582Z" fill="#024930"/>
<path d="M172.953 0H178.945V36.0145H172.782L165.076 12.1564V36.0145H159.025V0H165.36L172.953 23.5164V0Z" fill="#024930"/>
<path d="M198.651 0H189.804L182.556 36.0145H189.12L190.4 28.5382H198.255L199.622 36.0145H206.244L198.651 0ZM191.251 23.5709L194.2 6.33455L197.349 23.5709H191.251Z" fill="#024930"/>
</svg>
