<svg width="1440" height="264" viewBox="0 0 1440 264" fill="none" xmlns="http://www.w3.org/2000/svg">
<path d="M-34.3635 0.078125H65.8344C81.9619 0.078125 93.5917 3.69749 100.697 10.9362C107.803 18.1749 111.343 28.3411 111.343 41.4081V98.2002C111.343 106.557 109.959 113.449 107.164 118.878C104.37 124.308 99.9256 128.14 93.8046 130.349C99.9256 132.584 104.37 136.124 107.164 140.994C109.932 145.864 111.343 152.331 111.343 160.421V222.217C111.343 235.31 107.803 245.45 100.697 252.689C93.5917 259.927 81.9619 263.547 65.8344 263.547H-34.3635V0.078125ZM63.7586 101.553V46.4379C63.7586 41.9936 62.9336 38.9863 61.257 37.4694C59.5803 35.9524 56.3868 35.1806 51.6497 35.1806H13.6464V112.837H51.6497C56.3868 112.837 59.5803 112.012 61.257 110.336C62.9336 108.659 63.7586 105.732 63.7586 101.58V101.553ZM63.7586 217.187V159.144C63.7586 154.7 62.9336 151.692 61.257 150.175C59.5803 148.658 56.3868 147.887 51.6497 147.887H13.6464V228.471H51.6497C56.3868 228.471 59.5803 227.699 61.257 226.182C62.9336 224.665 63.7586 221.658 63.7586 217.213V217.187Z" fill="#E6FFA9"/>
<path d="M266.895 226.823V263.549H138.301V0.107422H263.542V36.8333H186.71V109.913H251.433V147.064H186.71V226.823H266.895Z" fill="#E6FFA9"/>
<path d="M411.91 226.821V263.547H293.748V0.078125H341.758V226.821H411.91Z" fill="#E6FFA9"/>
<path d="M557.11 226.821V263.547H438.948V0.078125H486.958V226.821H557.11Z" fill="#E6FFA9"/>
<path d="M701.778 0.107422H637.055L584.042 263.576H632.052L641.42 208.886H698.877L708.883 263.576H757.319L701.778 0.107422ZM647.647 172.533L669.23 46.4406L692.277 172.533H647.674H647.647Z" fill="#E6FFA9"/>
<path d="M787.977 0.399414H888.095C904.223 0.399414 915.826 4.01878 922.932 11.2575C930.011 18.4962 933.577 28.6358 933.577 41.7028V98.4416C933.577 106.798 932.193 113.664 929.399 119.093C926.604 124.522 922.16 128.355 916.039 130.563C922.16 132.799 926.604 136.339 929.399 141.209C932.166 146.079 933.577 152.546 933.577 160.61V222.352C933.577 235.419 930.037 245.585 922.932 252.797C915.853 260.036 904.223 263.655 888.095 263.655H787.977V0.399414ZM885.913 101.369V46.5197C885.913 42.102 885.088 39.1213 883.411 37.5777C881.761 36.0608 878.568 35.289 873.857 35.289H836.04V112.573H873.857C878.568 112.573 881.761 111.748 883.411 110.071C885.061 108.395 885.913 105.494 885.913 101.342V101.369ZM885.913 216.444V158.693C885.913 154.276 885.088 151.295 883.411 149.751C881.761 148.234 878.568 147.463 873.857 147.463H836.04V227.648H873.857C878.568 227.648 881.761 226.876 883.411 225.359C885.061 223.842 885.913 220.861 885.913 216.417V216.444Z" fill="#E6FFA9"/>
<path d="M1091.87 10.8581C1084.77 3.61936 1073.14 0 1056.98 0H1006.02C990.156 0 978.606 3.61936 971.367 10.8581C964.102 18.0968 960.509 28.263 960.509 41.3566V222.272C960.509 235.365 964.102 245.531 971.367 252.77C978.606 260.009 990.156 263.628 1006.02 263.628H1056.98C1073.14 263.628 1084.77 260.009 1091.87 252.77C1098.98 245.531 1102.52 235.365 1102.52 222.272V41.3566C1102.52 28.263 1098.98 18.0968 1091.87 10.8581ZM1054.48 215.592C1054.48 219.77 1053.71 222.697 1052.19 224.374C1050.65 226.024 1047.51 226.876 1042.8 226.876H1020.65C1015.92 226.876 1012.72 226.024 1011.05 224.374C1009.37 222.697 1008.55 219.77 1008.55 215.592V48.063C1008.55 43.6187 1009.37 40.6114 1011.05 39.0679C1012.72 37.5509 1015.92 36.7791 1020.65 36.7791H1042.8C1047.51 36.7791 1050.65 37.5509 1052.19 39.0679C1053.71 40.6114 1054.48 43.6187 1054.48 48.063V215.592Z" fill="#E6FFA9"/>
<path d="M1231.4 0H1275.26V263.575H1230.15L1173.76 88.9672V263.575H1129.47V0H1175.83L1231.4 172.106V0Z" fill="#E6FFA9"/>
<path d="M1419.48 0H1354.73L1301.69 263.575H1349.72L1359.09 208.859H1416.58L1426.58 263.575H1475.04L1419.48 0ZM1365.32 172.505L1386.9 46.3598L1409.95 172.505H1365.32Z" fill="#E6FFA9"/>
</svg>
